<?xml version="1.0" encoding="utf-8"?>
<!-- Generator: Adobe Illustrator 21.0.0, SVG Export Plug-In . SVG Version: 6.00 Build 0)  -->
<svg version="1.1" xmlns="http://www.w3.org/2000/svg" xmlns:xlink="http://www.w3.org/1999/xlink" x="0px" y="0px"
	 viewBox="0 0 1024 1024" style="enable-background:new 0 0 1024 1024;" xml:space="preserve">
<style type="text/css">
	.st0{display:none;}
</style>
<g id="图层_1" class="st0">
</g>
<g id="图层_2">
	<path d="M336.4,84.5L385.7,238l50.8-149.5v-2c5.6-14.8,12.7-22.9,21.2-24.2c25.4-2.7,43.7,6.1,55,26.3c0,8.1-1.4,16.2-4.2,24.2
		c-1.9,5.4-2.4,9.4-1.4,12.1c1.9,94.3,2.8,167,2.8,218.2l-1.4,8.1l-4.2,4c-6.6,0-13.2,0-19.8,0c-11.3,0-17.4-7.4-18.3-22.2
		c0-1.3,0-2.7,0-4l1.4-204c-5.6,12.1-14.6,37.1-26.8,74.8c-26.3,78.1-43.3,117.2-50.8,117.2c-14.1,4-22.6-1.3-25.4-16.2L308.1,133
		c-0.9,1.4-1.4,20.2-1.4,56.6c0,17.5,0,39.7,0,66.7c0,28.3,0.5,56.6,1.4,84.9c0,2.7-0.5,5.4-1.4,8.1v2l-5.6,4c-5.6,0-12.7,0-21.2,0
		c-4.7,0-8.9,0-12.7,0c-2.8,0-4.2-2.7-4.2-8.1c2.8-154.9,4.7-235,5.6-240.4c-0.9-1.3-1.9-4-2.8-8.1c-1.9-6.7-2.4-12.8-1.4-18.2
		c2.8-13.4,15.5-22.2,38.1-26.3C318.5,52.9,329.8,63,336.4,84.5z"/>
	<path d="M676.4,351.2l-4.2,4c-8.5,0-16.5,0-24,0c-4.7,0-9.4,0-14.1,0l-2.8-4c-2.8-12.1-3.3-33-1.4-62.6c1.9-17.5,2.8-30.3,2.8-38.4
		c-46.1-71.4-72.4-117.8-79-139.4c-6.6-9.4-9.9-17.5-9.9-24.2c0-5.4,4.7-10.8,14.1-16.2c5.6-6.7,11.7-10.8,18.3-12.1
		c4.7,1.4,8,10.1,9.9,26.3c9.4,27,32.4,66,69.1,117.2c22.6-36.4,42.3-77.4,59.3-123.2c1.9-17.5,5.6-26.3,11.3-26.3
		c2.8,0,7.5,4,14.1,12.1c1.9,1.4,3.3,2,4.2,2c0.9,1.4,1.9,2.7,2.8,4c9.4,4,14.1,8.8,14.1,14.1c-0.9,5.4-4.7,12.8-11.3,22.2
		c-20.7,43.1-44.7,89.6-72,139.4c0,10.8,0,20.9,0,30.3C679.6,312.8,679.2,337.7,676.4,351.2z"/>
	<path d="M145.3,546.3h9.8c2.6,0.6,3.9,1.9,3.9,3.8c-3.5,26.3-18.6,40.7-45.3,43.2c-30.6,0-46.4-19.7-47.2-59.2
		c2.2-49.5,14.4-76.4,36.7-80.8c35-4.4,52.7,14.4,53.1,56.4c-0.4,5.6-4.6,8.5-12.5,8.5c-1.3,0-2.2-0.3-2.6-0.9l-2.6-2.8
		c0-26.3-8.1-39.8-24.3-40.4c-17.5,2.5-26.7,22.2-27.5,59.2c0.9,25.1,8.3,38.2,22.3,39.5c17.5,0.6,28.4-7.5,32.8-24.4l3.3-0.9V546.3
		z"/>
	<path d="M169.6,541.6c1.3-33.2,11.6-50.7,30.8-52.6c31.9,1.3,48.3,19.1,49.2,53.5c-0.4,34.4-13.1,52-38,52.6
		C184.5,594.5,170.5,576.7,169.6,541.6z M188,544.4c2.2,20.7,9.2,31.6,21,32.9c13.5-0.6,21-11.9,22.3-33.8c0-20-6.6-31.3-19.7-33.8
		C195.4,506.5,187.5,518.1,188,544.4z"/>
	<path d="M264.1,507.8l-0.7-1.9c-0.9-6.3-0.7-10.6,0.7-13.2c0.4-1.2,3.3-2.2,8.5-2.8c0.4,0,0.9,0,1.3,0c4.4,0,7.2,0.6,8.5,1.9
		c0.4,2.5,0.7,6.3,0.7,11.3c3.5-2.5,7.2-4.1,11.2-4.7c14.9,0,24.7,4.7,29.5,14.1c7.9-8.1,16.6-12.2,26.2-12.2
		c20.1,0,30.2,11.9,30.2,35.7c0,3.1,0,6.6,0,10.3c0.9,26.3,0,42-2.6,47c-2.6,0.6-5,0.9-7.2,0.9c-1.3,0-2.4,0-3.3,0
		c-5.2,0.6-7.4-0.9-6.6-4.7c0-0.6,0-1.9,0-3.8c0.9-15.6,1.3-27.9,1.3-36.6c-0.4-20-3.9-30.4-10.5-31c-17.1-2.5-24.3,18.5-21.6,62.9
		c0,0.6,0,1.3,0,1.9c0,3.8-0.4,6-1.3,6.6c-2.6,1.3-5.2,1.9-7.9,1.9c-0.9,0-2,0.3-3.3,0.9c-4.8,1.3-7-0.9-6.6-6.6
		c1.3-15.6,2-30.4,2-44.1c0.4-11.3-1.5-19.1-5.9-23.5c-1.8-0.6-3.3-0.9-4.6-0.9c-16.2-6.3-23,16.9-20.3,69.5c0,3.8-0.4,6.3-1.3,7.5
		c-2.2,0-4.2,0-5.9,0c-1.3,0-3.3,0-5.9,0c-4.4,0.6-6.1-0.3-5.2-2.8c0-9.4,0-20.7,0-33.8C263.8,546.9,264.1,530.3,264.1,507.8z"/>
	<path d="M395.2,552.9v-35.7c0-2.5-0.4-6.6-1.3-12.2c-0.9-5.6-1.1-10-0.7-13.2c0-1.9,0.4-3.4,1.3-4.7c2.2-0.6,7.6-1.2,16.4-1.9
		c3.1,0,4.4,4.1,3.9,12.2c0,1.3,0,2.2,0,2.8c2.2-0.6,4.8-1.2,7.9-1.9c3.1,0,6.3-0.3,9.8-0.9c23.2,1.9,35.4,17.8,36.7,47.9
		c-2.2,32.6-14,50.1-35.4,52.6c-8.3-0.6-15.3-1.9-21-3.8v29.1c0,10.6-0.4,17.2-1.3,19.7c-3.1,2.5-7.9,4.1-14.4,4.7
		c-0.4,0-0.9-0.3-1.3-0.9c-0.9-0.6-1.3-0.6-1.3,0c-1.3-1.9-1.8-4.1-1.3-6.6c0-15,0.2-29.8,0.7-44.1
		C394.4,582.9,394.8,568.5,395.2,552.9z M413.6,567.9c-0.4,7.5,4.6,11,15.1,10.3c15.7,0,24-11.3,24.9-33.8
		c-0.4-16.9-8.8-25.7-24.9-26.3c-9.6,0.6-14.4,4.1-14.4,10.3C413.4,539.1,413.2,552.3,413.6,567.9z"/>
	<path d="M481.2,541.6c1.3-33.2,11.6-50.7,30.8-52.6c31.9,1.3,48.3,19.1,49.2,53.5c-0.4,34.4-13.1,52-38,52.6
		C496,594.5,482,576.7,481.2,541.6z M499.5,544.4c2.2,20.7,9.2,31.6,21,32.9c13.5-0.6,21-11.9,22.3-33.8c0-20-6.6-31.3-19.7-33.8
		C507,506.5,499.1,518.1,499.5,544.4z"/>
	<path d="M584.8,594.2h-7.9c-0.9,0-2-0.3-3.3-0.9l-0.7-0.9c0-1.2,0.2-2.5,0.7-3.8c0-8.1,0.2-16.9,0.7-26.3c0.9-15.6,1.5-31.3,2-47
		c0-1.9-0.4-5-1.3-9.4c0-3.8,0-6.6,0-8.5c0-1.9,0.4-3.4,1.3-4.7c1.3-0.6,3.5-0.9,6.6-0.9c0.9,0,1.7,0,2.6,0c0.4,0,1.1,0,2,0
		c2.6-0.6,4.4-0.6,5.2,0c0.4,2.5,0.4,8.1,0,16.9c5.2-5,11.8-8.1,19.7-9.4c22.7,0.6,34.3,15.4,34.8,44.1c-0.9,32.6-2.2,50.1-3.9,52.6
		c-0.9,0.6-2.4,0.9-4.6,0.9c-7.4,0-11.4-1.3-11.8-3.8c1.3-14.4,2-29.7,2-46c0-20-4.2-29.7-12.5-29.1c-18.8,1.3-26.9,24.7-24.3,70.4
		c-0.4,2.5-0.9,4.1-1.3,4.7C588.5,593.9,586.6,594.2,584.8,594.2z"/>
	<path d="M731.1,562.3l0.7,1.9c-4.4,19.4-16,30.1-34.8,31.9c-25.8,0-38.5-16.6-38-49.8c0.9-35.7,10.7-55.7,29.5-60.1
		c27.1-1.9,41.5,16,43.3,53.5c0,7.5-12.2,12.5-36.7,15c-5.7,0.6-9.6,0.9-11.8,0.9c-2.2,0.6-3.1,2.5-2.6,5.6
		c0.9,11.9,6.1,18.2,15.7,18.8c5.2,0,9.6-3.1,13.1-9.4c3.5-6.9,8.5-10.3,15.1-10.3h0.7C727.8,560.4,729.8,561,731.1,562.3z
		 M681.2,536.9l21-2.8c5.2,0,8.1-1.9,8.5-5.6c-2.6-15.6-8.1-24.1-16.4-25.4c-6.6,1.3-11.8,6.6-15.7,16
		C674.7,530.3,675.5,536.3,681.2,536.9z"/>
	<path d="M754,594.2h-7.9c-0.9,0-2-0.3-3.3-0.9l-0.7-0.9c0-1.2,0.2-2.5,0.7-3.8c0-8.1,0.2-16.9,0.7-26.3c0.9-15.6,1.5-31.3,2-47
		c0-1.9-0.4-5-1.3-9.4c0-3.8,0-6.6,0-8.5c0-1.9,0.4-3.4,1.3-4.7c1.3-0.6,3.5-0.9,6.6-0.9c0.9,0,1.7,0,2.6,0c0.4,0,1.1,0,2,0
		c2.6-0.6,4.4-0.6,5.2,0c0.4,2.5,0.4,8.1,0,16.9c5.2-5,11.8-8.1,19.7-9.4c22.7,0.6,34.3,15.4,34.8,44.1c-0.9,32.6-2.2,50.1-3.9,52.6
		c-0.9,0.6-2.4,0.9-4.6,0.9c-7.4,0-11.4-1.3-11.8-3.8c1.3-14.4,2-29.7,2-46c0-20-4.2-29.7-12.5-29.1c-18.8,1.3-26.9,24.7-24.3,70.4
		c-0.4,2.5-0.9,4.1-1.3,4.7C757.8,593.9,755.8,594.2,754,594.2z"/>
	<path d="M845.2,456.1l0.7-3.8c2.2-4.4,5.5-6.3,9.8-5.6c1.7,0,3.5,0.6,5.2,1.9c0.4,0,0.9,0,1.3,0l1.3,1.9l0.7,4.7
		c0,4.4-0.4,10.7-1.3,18.8c-0.9,8.8-1.1,15-0.7,18.8c0,1.3,0,2.8,0,4.7l0.7,2.8h11.2c0,0.6,0.2,0.6,0.7,0c1.7,0,3.3,0.9,4.6,2.8
		l0.7,1.9c0,2.5,0,4.7,0,6.6c0.4,5,0,7.8-1.3,8.5c-1.3,1.3-3.9,2.2-7.9,2.8c-4.8,0-7.4,0.6-7.9,1.9c-0.4,1.3-0.7,9.4-0.7,24.4
		c-0.4,4.4-0.2,11.3,0.7,20.7c0.9,9.4,1.3,16,1.3,19.7c-0.4,1.3-0.7,2.5-0.7,3.8v0.9c-1.8,0-3.7,0-5.9,0c-1.3,0-2.6,0-3.9,0
		c-0.4,0-1.1,0-2,0c-2.2,0-3.5,0-3.9,0c-1.8-1.2-2.4-6.3-2-15c0.4-1.9,0.7-3.4,0.7-4.7c0-5-0.2-13.2-0.7-24.4c0-10.6,0-18.5,0-23.5
		c0-2.5-1.3-3.4-3.9-2.8h-0.7c-0.9,0-2.4,0.3-4.6,0.9c-3.9,1.9-7.2,1.9-9.8,0c-0.9-0.6-1.1-2.8-0.7-6.6c0.4-1.2,0.7-2.2,0.7-2.8
		c0-0.6-0.2-1.9-0.7-3.8c-0.4-2.5-0.2-4.4,0.7-5.6c1.3-1.2,4.4-2.2,9.2-2.8c4.4-0.6,7.2-1.6,8.5-2.8c1.3-2.5,1.5-10,0.7-22.5
		C844.3,467.1,844.3,459.9,845.2,456.1z"/>
	<path d="M889.8,527.5c0-24.4,9.2-37.3,27.5-38.5c23.2,0.6,35.6,12.8,37.4,36.6c0,1.3-0.2,2.2-0.7,2.8v0.9
		c-2.6,3.8-6.6,5.3-11.8,4.7c-2.2,0-3.9-2.5-5.2-7.5c-3.5-11.9-9-17.8-16.4-17.8c-10.5,0.6-15.7,6.3-15.7,16.9
		c0,5,6.6,9.7,19.7,14.1c21.9,6.9,32.8,16.9,32.8,30.1c-0.9,16.9-12.7,26-35.4,27.2c-21.4-1.9-32.6-11.9-33.5-30.1
		c0-4.4,3.7-6.9,11.2-7.5c2.2,0,4.6,2.8,7.2,8.5c3.9,8.8,9,13.2,15.1,13.2c12.2,0.6,18.1-2.8,17.7-10.3c-1.3-5-8.5-9.7-21.6-14.1
		C899.2,550.4,889.8,540.7,889.8,527.5z"/>
	<path d="M376,908.6l33.2-112.8c0.6-4.5,1.6-10.4,2.8-17.7c1.9-11.8,3.5-19,4.7-21.7c1.3-2.7,4.7-1.8,10.4,2.7
		c1.3,0.9,2.5,1.4,3.8,1.4c1.9,0.9,4.1,1.8,6.6,2.7c7,0,10.4,1.8,10.4,5.4c0,7.3-15.8,56.6-47.5,148.2c-3.8,12.7-6.3,20.9-7.6,24.5
		c-0.6,2.7-3.2,4.1-7.6,4.1h-20.9c-1.3,0-2.2,0-2.8,0c-1.3,0-2.2,0-2.8,0c-1.3,0-2.2-0.9-2.8-2.7c0-0.9,0-1.8,0-2.7
		c-0.6-1.8-3.8-11.8-9.5-29.9c-20.3-67-33.2-114.2-38.9-141.4c-1.3-7.2,3.5-9.5,14.2-6.8c0.6,0.9,2.5,0.9,5.7,0
		c7.6-1.8,12,0,13.3,5.4L376,908.6z"/>
	<path d="M556.3,926.3c-8.9,12.7-21.5,20.4-38,23.1c-36.7,1.8-54.7-49.4-54.1-153.6c-0.6-2.7-1.3-6.8-1.9-12.2
		c-1.3-7.2-0.9-12.7,0.9-16.3c1.9-7.2,7.9-11.3,18-12.2c10.8,0,15.5,8.2,14.2,24.5c-0.6,5.4-0.9,14.5-0.9,27.2c0,6.4,0,13.6,0,21.7
		s0.3,15.9,0.9,23.1c1.3,45.3,9.2,68.4,23.7,69.3c34.2,0,47.5-45.7,39.9-137.3l-0.9-4.1c-0.6-10.9-0.3-17.7,0.9-20.4
		c6.3-4.5,13-7.2,19.9-8.2c5.1,2.7,8.2,4.1,9.5,4.1c1.3,2.7,1.9,6.8,1.9,12.2c-0.6,30.8-1.6,62.1-2.8,93.8
		c-0.6,19.9-0.9,39.4-0.9,58.4c0,1.8,0,3.6,0,5.4c0,11.8-0.3,18.6-0.9,20.4c-0.6,0.9-4.4,0.9-11.4,0c-1.3,0-3.2,0-5.7,0
		c-3.8,0.9-6,1.4-6.6,1.4c-1.9-0.9-3.8-5.9-5.7-15C556.3,929,556.3,927.2,556.3,926.3z"/>
	<path d="M642.7,825.7v2.7c20.9,0,41.8,0,62.6,0h0.9c3.8,0,5.7,1.4,5.7,4.1c0,7.3,0,14.1,0,20.4c0,3.6-1.6,5-4.7,4.1
		c-7.6,0-29.4,0-65.5,0l-0.9,13.6c0,10.9,0,26.3,0,46.2c7,0,18.3,0.5,34.2,1.4c13.9,0,24,0,30.4,0h0.9c3.8,0,5.7,0.9,5.7,2.7
		c0,7.3,0,14.5,0,21.7c0,1.8-1.6,2.7-4.7,2.7c-7,0-19.3,0-37,0c-19.6-0.9-33.2-1.4-40.8-1.4c-3.2,0.9-7.6,1.4-13.3,1.4
		c-5.7-3.6-8.5-9.5-8.5-17.7c-0.6-1.8,0.3-5.4,2.8-10.9c1.9-4.5,2.8-8.2,2.8-10.9c0-14.5,0-35.8,0-63.9c0-27.2,0-48.5,0-63.9
		c0-0.9-0.6-3.2-1.9-6.8c-1.9-5.4-2.8-10.4-2.8-15c1.3-7.2,5.1-11.8,11.4-13.6c3.8,0,7.6,0.5,11.4,1.4l0.9,1.4c1.3,0,2.5,0,3.8,0
		c12,0.9,24.4,0.9,37,0c12.7-0.9,25.3-1.4,38-1.4c4.4,0,6.6,1.4,6.6,4.1c0,7.3,0,14.5,0,21.7c0,3.6-1.6,5-4.7,4.1
		c-22.2,0-43,0-62.6,0h-5.7C643.3,781.3,642.7,798.5,642.7,825.7z"/>
</g>
</svg>
